<svg xmlns="http://www.w3.org/2000/svg" viewBox="0 0 512 512" width="100%" height="100%">
  <!-- Amber Rounded Square Background (Matching Extension Icon) -->
  <rect width="512" height="512" rx="128" fill="#D97706"/>
  <!-- Cream-White Fork & Knife Utensils (Matching Extension Icon) -->
  <path d="M120 112v112c0 26.5 21.5 48 48 48h16v128c0 17.7 14.3 32 32 32s32-14.3 32-32V272h16c26.5 0 48-21.5 48-48V112c0-8.8-7.2-16-16-16s-16 7.2-16 16v80c0 8.8-7.2 16-16 16s-16-7.2-16-16V112c0-8.8-7.2-16-16-16s-16 7.2-16 16v80c0 8.8-7.2 16-16 16s-16-7.2-16-16V112c0-8.8-7.2-16-16-16s-16 7.2-16 16zm272 0c-26.5 0-48 21.5-48 48v80h16v184c0 17.7 14.3 32 32 32s32-14.3 32-32V160c0-26.5-21.5-48-48-48z" fill="#FAF7F2"/>
</svg>
