<svg xmlns="http://www.w3.org/2000/svg" viewBox="0 0 512 512" width="100%" height="100%">
  <!-- Porcelain Plate Rim -->
  <circle cx="256" cy="256" r="236" fill="#F3EFE9" stroke="#D97706" stroke-width="20" />
  <!-- Porcelain Plate Inner -->
  <circle cx="256" cy="256" r="176" fill="#FCFAF7" />
  <!-- FontAwesome-compatible Fork and Knife (fa-utensils) in Culinary Amber -->
  <g transform="translate(64, 64) scale(0.75)" fill="#D97706">
    <path d="M256 0c-17.7 0-32 14.3-32 32v112c0 23.3 12.5 43.7 31 54.9L221.7 426.1C215.1 462.6 243.2 496 280 496c29.1 0 53.7-20.7 58.7-49.3L371 256h1c44.2 0 80-35.8 80-80V32c0-17.7-14.3-32-32-32s-32 14.3-32 32v80h-16V32c0-17.7-14.3-32-32-32s-32 14.3-32 32v80h-16V32c0-17.7-14.3-32-32-32zM96 64C42.8 64 0 106.8 0 160v16c0 30.1 16.7 56.4 41.3 70.1L9.6 426.1C3 462.6 31.1 496 67.9 496c29.1 0 53.7-20.7 58.7-49.3L160 256c53.2 0 96-42.8 96-96v-16C256 106.8 213.2 64 160 64H96z"/>
  </g>
</svg>
